<svg height="423pt" viewBox="-20 0 423 423.26418" width="423pt" xmlns="http://www.w3.org/2000/svg"><path d="m341.464844 177.503906c0 75.40625-61.128906 136.535156-136.53125 136.535156-75.40625 0-136.535156-61.128906-136.535156-136.535156s61.128906-136.53125 136.535156-136.53125c75.402344 0 136.53125 61.125 136.53125 136.53125zm0 0" fill="#ea3457"/><path d="m204.933594 320.863281c-79.046875 0-143.363282-64.3125-143.363282-143.359375s64.316407-143.359375 143.363282-143.359375c79.042968 0 143.359375 64.3125 143.359375 143.359375s-64.316407 143.359375-143.359375 143.359375zm0-273.066406c-71.519532 0-129.707032 58.1875-129.707032 129.707031 0 71.519532 58.1875 129.707032 129.707032 129.707032 71.519531 0 129.707031-58.1875 129.707031-129.707032 0-71.519531-58.1875-129.707031-129.707031-129.707031zm0 0" fill="#ea3457"/><path d="m82.050781 177.503906c0 22.621094-18.335937 40.960938-40.957031 40.960938-22.625 0-40.960938-18.339844-40.960938-40.960938s18.335938-40.960937 40.960938-40.960937c22.621094 0 40.957031 18.339843 40.957031 40.960937zm0 0" fill="#ffe600"/><path d="m297.371094 80.273438c2.046875 7.976562 3.132812 16.308593 3.132812 24.839843v157.722657c0 13.199218 10.699219 23.894531 23.894532 23.894531 13.195312 0 23.894531-10.695313 23.894531-23.894531v-17.066407c0-7.539062 6.113281-13.652343 13.652343-13.652343 7.539063 0 13.652344 6.113281 13.652344 13.652343v23.894531c0 28.277344-22.921875 51.199219-51.199218 51.199219-28.277344 0-51.199219-22.921875-51.199219-51.199219v-58.027343c0-7.539063-6.113281-13.652344-13.652344-13.652344-7.542969 0-13.65625 6.113281-13.65625 13.652344v153.601562c0 9.425781 7.640625 17.066407 17.066406 17.066407s17.070313-7.640626 17.070313-17.066407v-6.828125c0-9.425781 7.640625-17.066406 17.066406-17.066406s17.066406 7.640625 17.066406 17.066406v10.242188c0 26.390625-21.394531 47.785156-47.789062 47.785156-26.390625 0-47.785156-21.394531-47.785156-47.785156v-157.015625c0-7.539063-6.113282-13.652344-13.652344-13.652344-7.542969 0-13.65625 6.113281-13.65625 13.652344v157.015625c0 26.390625-21.394532 47.785156-47.785156 47.785156-26.390626 0-47.785157-21.394531-47.785157-47.785156v-10.242188c0-9.425781 7.640625-17.066406 17.066407-17.066406 9.425781 0 17.066406 7.640625 17.066406 17.066406v6.828125c0 9.425781 7.640625 17.066407 17.066406 17.066407s17.066406-7.640626 17.066406-17.066407v-153.601562c0-7.539063-6.113281-13.652344-13.652344-13.652344-7.542968 0-13.65625 6.113281-13.65625 13.652344v58.027343c0 28.277344-22.921874 51.199219-51.199218 51.199219s-51.199219-22.921875-51.199219-51.199219v-23.894531c0-7.539062 6.113281-13.652343 13.652344-13.652343 7.539062 0 13.652343 6.113281 13.652343 13.652343v17.066407c0 13.199218 10.699219 23.894531 23.894532 23.894531 13.195312 0 23.894531-10.695313 23.894531-23.894531v-160.425782c0-54.316406 45.308594-98.046875 100.191406-95.464844 24.726563 1.164063 46.707031 12.011719 62.863281 28.683594" fill="#fff"/><path d="m266.371094 423.265625c-30.113282 0-54.613282-24.5-54.613282-54.613281v-157.015625c0-3.765625-3.058593-6.824219-6.824218-6.824219-3.769532 0-6.828125 3.058594-6.828125 6.824219v157.015625c0 30.113281-24.5 54.613281-54.613281 54.613281-30.113282 0-54.613282-24.5-54.613282-54.613281v-10.242188c0-13.171875 10.71875-23.894531 23.894532-23.894531 13.171874 0 23.890624 10.722656 23.890624 23.894531v6.828125c0 5.648438 4.59375 10.238281 10.242188 10.238281s10.238281-4.589843 10.238281-10.238281v-153.601562c0-3.765625-3.058593-6.824219-6.824219-6.824219-3.769531 0-6.828124 3.058594-6.828124 6.824219v58.027343c0 31.992188-26.035157 58.027344-58.027344 58.027344-31.992188 0-58.027344-26.035156-58.027344-58.027344v-23.894531c0-11.292969 9.1875-20.480469 20.480469-20.480469s20.480469 9.1875 20.480469 20.480469v17.066407c0 9.414062 7.652343 17.066406 17.066406 17.066406 9.414062 0 17.066406-7.652344 17.066406-17.066406v-160.425782c0-28.265625 11.269531-54.578125 31.722656-74.097656 20.445313-19.507812 47.230469-29.558594 75.617188-28.1875 25.441406 1.199219 49.394531 12.125 67.441406 30.753906 2.628906 2.710938 2.5625 7.03125-.144531 9.652344-2.699219 2.625-7.035157 2.566406-9.652344-.148438-15.628906-16.132812-36.328125-25.585937-58.28125-26.621093-24.511719-1.109375-47.832031 7.519531-65.554687 24.425781-17.726563 16.921875-27.496094 39.730469-27.496094 64.222656v160.425782c0 16.941406-13.777344 30.722656-30.71875 30.722656s-30.71875-13.78125-30.71875-30.722656v-17.066407c0-3.765625-3.0625-6.824219-6.828125-6.824219s-6.824219 3.058594-6.824219 6.824219v23.894531c0 24.46875 19.90625 44.375 44.371094 44.375 24.46875 0 44.375-19.90625 44.375-44.375v-58.027343c0-11.292969 9.1875-20.480469 20.480468-20.480469 11.292969 0 20.476563 9.1875 20.476563 20.480469v153.601562c0 13.171875-10.71875 23.890625-23.890625 23.890625-13.175781 0-23.894531-10.71875-23.894531-23.890625v-6.828125c0-5.648437-4.59375-10.238281-10.238281-10.238281-5.648438 0-10.242188 4.589844-10.242188 10.238281v10.242188c0 22.585937 18.375 40.957031 40.960938 40.957031 22.585937 0 40.960937-18.371094 40.960937-40.957031v-157.015625c0-11.292969 9.1875-20.480469 20.480469-20.480469 11.292968 0 20.476562 9.1875 20.476562 20.480469v157.015625c0 22.585937 18.375 40.957031 40.960938 40.957031 22.585937 0 40.960937-18.371094 40.960937-40.957031v-10.242188c0-5.648437-4.59375-10.238281-10.238281-10.238281-5.648438 0-10.242188 4.589844-10.242188 10.238281v6.828125c0 13.171875-10.71875 23.890625-23.894531 23.890625-13.171875 0-23.890625-10.71875-23.890625-23.890625v-153.601562c0-11.292969 9.1875-20.480469 20.480469-20.480469s20.480469 9.1875 20.480469 20.480469v58.027343c0 24.46875 19.90625 44.375 44.371094 44.375 24.46875 0 44.375-19.90625 44.375-44.375v-23.894531c0-3.765625-3.0625-6.824219-6.828126-6.824219-3.765624 0-6.828124 3.058594-6.828124 6.824219v17.066407c0 16.941406-13.777344 30.722656-30.71875 30.722656-16.941407 0-30.71875-13.78125-30.71875-30.722656v-157.726563c0-7.804687-.980469-15.59375-2.921876-23.144531-.933593-3.648438 1.265626-7.367188 4.921876-8.304688 3.640624-.941406 7.367187 1.257813 8.304687 4.917969 2.222656 8.660156 3.347656 17.585937 3.347656 26.53125v157.726563c0 9.414062 7.652344 17.066406 17.066407 17.066406 9.414062 0 17.066406-7.652344 17.066406-17.066406v-17.066407c0-11.292969 9.1875-20.480469 20.480468-20.480469 11.292969 0 20.480469 9.1875 20.480469 20.480469v23.894531c0 31.992188-26.035156 58.027344-58.027343 58.027344-31.992188 0-58.027344-26.035156-58.027344-58.027344v-58.027343c0-3.765625-3.058594-6.824219-6.824219-6.824219-3.769531 0-6.828125 3.058594-6.828125 6.824219v153.601562c0 5.648438 4.59375 10.238281 10.238281 10.238281 5.648438 0 10.242188-4.589843 10.242188-10.238281v-6.828125c0-13.171875 10.71875-23.894531 23.894531-23.894531 13.171875 0 23.890625 10.722656 23.890625 23.894531v10.242188c0 30.113281-24.5 54.613281-54.613281 54.613281zm0 0" fill="#602f75"/><path d="m334.640625 109.238281c0 26.390625-21.398437 47.785157-47.789063 47.785157-26.390624 0-47.785156-21.394532-47.785156-47.785157 0-26.394531 21.394532-47.789062 47.785156-47.789062 26.390626 0 47.789063 21.394531 47.789063 47.789062zm0 0" fill="#00e7ff"/><g fill="#602f75"><path d="m286.851562 163.851562c-30.113281 0-54.613281-24.5-54.613281-54.613281s24.5-54.613281 54.613281-54.613281c30.113282 0 54.613282 24.5 54.613282 54.613281s-24.5 54.613281-54.613282 54.613281zm0-95.574218c-22.585937 0-40.960937 18.375-40.960937 40.960937 0 22.585938 18.375 40.960938 40.960937 40.960938 22.585938 0 40.960938-18.375 40.960938-40.960938 0-22.585937-18.375-40.960937-40.960938-40.960937zm0 0"/><path d="m308.027344 109.238281c0 11.695313-9.480469 21.175781-21.175782 21.175781-11.695312 0-21.175781-9.480468-21.175781-21.175781 0-11.695312 9.480469-21.175781 21.175781-21.175781 11.695313 0 21.175782 9.480469 21.175782 21.175781zm0 0"/><path d="m286.851562 137.238281c-15.441406 0-28-12.5625-28-28 0-15.441406 12.558594-28 28-28 15.441407 0 28 12.558594 28 28 0 15.4375-12.558593 28-28 28zm0-42.347656c-7.914062 0-14.347656 6.433594-14.347656 14.347656 0 7.910157 6.4375 14.34375 14.347656 14.34375 7.914063 0 14.347657-6.433593 14.347657-14.34375 0-7.914062-6.433594-14.347656-14.347657-14.347656zm0 0"/></g><path d="m170.796875 109.238281c0 26.390625-21.394531 47.785157-47.785156 47.785157s-47.785157-21.394532-47.785157-47.785157c0-26.394531 21.394532-47.789062 47.785157-47.789062s47.785156 21.394531 47.785156 47.789062zm0 0" fill="#00e7ff"/><path d="m123.011719 163.851562c-30.113281 0-54.613281-24.5-54.613281-54.613281s24.5-54.613281 54.613281-54.613281 54.613281 24.5 54.613281 54.613281-24.5 54.613281-54.613281 54.613281zm0-95.574218c-22.585938 0-40.960938 18.375-40.960938 40.960937 0 22.585938 18.375 40.960938 40.960938 40.960938 22.585937 0 40.960937-18.375 40.960937-40.960938 0-22.585937-18.375-40.960937-40.960937-40.960937zm0 0" fill="#602f75"/><path d="m144.1875 109.238281c0 11.695313-9.480469 21.175781-21.175781 21.175781-11.695313 0-21.175781-9.480468-21.175781-21.175781 0-11.695312 9.480468-21.175781 21.175781-21.175781 11.695312 0 21.175781 9.480469 21.175781 21.175781zm0 0" fill="#602f75"/><path d="m123.011719 137.238281c-15.441407 0-28-12.5625-28-28 0-15.441406 12.558593-28 28-28 15.441406 0 28 12.558594 28 28 0 15.4375-12.558594 28-28 28zm0-42.347656c-7.914063 0-14.347657 6.433594-14.347657 14.347656 0 7.910157 6.4375 14.34375 14.347657 14.34375 7.914062 0 14.347656-6.433593 14.347656-14.34375 0-7.914062-6.433594-14.347656-14.347656-14.347656zm0 0" fill="#602f75"/></svg>